<?xml version="1.0" encoding="UTF-8" standalone="no"?>
<!DOCTYPE svg PUBLIC "-//W3C//DTD SVG 1.1//EN" "http://www.w3.org/Graphics/SVG/1.1/DTD/svg11.dtd">
<svg width="100%" height="100%" viewBox="0 0 56 100" version="1.1" xmlns="http://www.w3.org/2000/svg" xmlns:xlink="http://www.w3.org/1999/xlink" xml:space="preserve" xmlns:serif="http://www.serif.com/" style="fill-rule:evenodd;clip-rule:evenodd;stroke-linecap:round;stroke-linejoin:round;stroke-miterlimit:1.5;">
    <g transform="matrix(1.8745,0,0,1.8745,-43.03,-38.9915)">
        <path d="M29.289,46.467C29.327,41.313 25.751,41.937 25.863,30.985C25.975,20.034 44.663,18.619 45.719,31.46C46.776,44.302 44.482,37.799 44.971,46.361C45.417,54.179 48.814,53.941 48.336,62.974C47.54,78.043 24.431,73.126 25.636,61.91C26.842,50.693 29.252,51.622 29.289,46.467Z" style="fill:rgb(207,170,121);stroke:white;stroke-width:0.53px;"/>
    </g>
    <g transform="matrix(1.06449,0,0,1.06449,-23.2695,-2.76296)">
        <path d="M54.564,14.6C61.747,19.043 61.445,26.967 58.337,42.78C56.15,53.904 62.488,56.235 64.686,63.847C66.884,71.458 67.035,76.203 65.45,81.453C63.865,86.703 57.252,69.598 55.351,65.17C54.862,64.03 52.154,53.239 51.608,44.264C51.188,37.366 53.047,32.886 52.055,26.47C50.801,18.363 46.485,16.521 46.706,11.719C46.966,6.053 52.445,13.29 54.564,14.6Z" style="fill:rgb(243,205,160);"/>
    </g>
    <g transform="matrix(1.06449,0,0,1.06449,-26.1113,0.224437)">
        <path d="M38.871,53.853C38.871,53.853 31.603,63.86 31.358,69.998C31.112,76.137 31.659,81.88 38.631,85.8C45.602,89.721 55.578,89.742 55.578,89.742C55.578,89.742 40.55,83.995 37.989,74.222C36.399,68.154 38.871,53.853 38.871,53.853Z" style="fill:rgb(158,143,121);"/>
    </g>
    <g transform="matrix(0.628497,0,0,0.876801,-11.7161,-38.2735)">
        <path d="M38.871,53.853C38.871,53.853 31.603,63.86 31.358,69.998C31.112,76.137 31.403,79.52 35.771,85.046C42.263,93.26 43.451,95.612 43.451,95.612C43.451,95.612 38.678,80.458 37.989,74.222C37.301,67.987 38.871,53.853 38.871,53.853Z" style="fill:rgb(158,143,121);"/>
    </g>
    <g transform="matrix(1.06449,0,0,1.06449,-27.5918,-3.60445)">
        <ellipse cx="60.8" cy="25.155" rx="9.16" ry="8.747" style="fill:rgb(238,238,238);stroke:white;stroke-width:0.94px;"/>
    </g>
    <g transform="matrix(1.06449,0,0,1.06449,-49.2654,-3.38641)">
        <ellipse cx="60.8" cy="25.155" rx="9.16" ry="8.747" style="fill:rgb(238,238,238);stroke:white;stroke-width:0.94px;"/>
    </g>
    <g transform="matrix(1.06449,0,0,1.06449,-21.2237,-3.91798)">
        <ellipse cx="37.479" cy="28.035" rx="2.038" ry="3.591"/>
    </g>
    <g transform="matrix(1.06449,0,0,1.06449,-5.42078,-5.08203)">
        <ellipse cx="37.479" cy="28.035" rx="2.038" ry="3.591"/>
    </g>
</svg>
